<svg width="44" height="44" viewBox="0 0 44 44" fill="none" xmlns="http://www.w3.org/2000/svg">
<path d="M6.87275 0H37.1273C40.9259 0 44 3.07338 44 6.87112V37.1289C44 40.9266 40.9259 44 37.1273 44H6.87275C3.07411 44 0 40.9266 0 37.1289V6.88147C0 3.07338 3.07411 0 6.87275 0Z" fill="#00005B"/>
<path d="M18.526 27.6003H11.7077L10.3205 32.0287C10.282 32.1929 10.1307 32.3092 9.96626 32.3012H6.51282C6.31589 32.3012 6.24702 32.1903 6.30621 31.9682L12.2095 14.6027C12.2686 14.4212 12.3276 14.2436 12.3866 14.0113C12.4639 13.6073 12.5034 13.1969 12.5047 12.7853C12.4878 12.6637 12.5928 12.5559 12.7113 12.5733H17.4045C17.542 12.5733 17.6206 12.6238 17.6405 12.7247L24.3409 31.9984C24.3999 32.2005 24.3408 32.3014 24.1638 32.3012H20.3266C20.192 32.3164 20.0635 32.2242 20.0314 32.0892L18.526 27.6003ZM12.7703 23.8664H17.434C16.6678 21.2481 15.803 18.6643 15.1022 16.0256C14.308 18.7627 13.5746 21.3012 12.7703 23.8664Z" fill="#9999FF"/>
<path d="M29.3241 25.8904C29.5955 28.1389 31.4837 29.2109 33.5745 29.1652C34.7536 29.1421 36.0135 28.959 37.1153 28.5132C37.2133 28.4329 37.2628 28.4831 37.2628 28.6647V31.5406C37.2721 31.6902 37.2096 31.8239 37.0857 31.9039C35.7164 32.5259 34.1446 32.7135 32.6595 32.6896C28.2315 32.6896 25.1906 29.5697 25.1919 25.0305C25.1803 20.7288 27.971 17.0998 32.3053 17.0998C35.9794 17.0046 38.5231 19.9461 38.5333 23.6077C38.5333 24.2745 38.4961 24.9437 38.4153 25.6056C38.3996 25.742 38.2835 25.8479 38.1496 25.8479C35.2153 25.8479 32.2666 25.8904 29.3241 25.8904ZM29.3241 23.1325C30.9595 23.1325 32.6043 23.1903 34.2386 23.1174C34.4842 23.0923 34.6667 23.0456 34.6667 22.7902C34.6326 21.4328 33.487 20.3163 32.1577 20.3684C30.5517 20.2687 29.5239 21.6246 29.3241 23.1325Z" fill="#9999FF"/>
</svg>
