<svg width="44" height="44" viewBox="0 0 44 44" fill="none" xmlns="http://www.w3.org/2000/svg">
<path d="M6.87275 0H37.1273C40.9259 0 44 3.07338 44 6.87112V37.1289C44 40.9266 40.9259 44 37.1273 44H6.87275C3.07411 44 0 40.9266 0 37.1289V6.88147C0 3.07338 3.07411 0 6.87275 0Z" fill="white"/>
<path d="M29.6478 21.6881C29.5053 21.3971 29.6273 21.0486 29.918 20.9062C30.2086 20.7638 30.5576 20.8858 30.7 21.1764C30.8424 21.467 30.7204 21.8158 30.4298 21.9582C30.1391 22.1006 29.7902 21.9787 29.6478 21.6881ZM32.476 27.4998C32.3335 27.2093 32.4555 26.8604 32.7462 26.718C33.0368 26.5756 33.3858 26.6979 33.5282 26.9885C33.6706 27.2791 33.5487 27.6276 33.258 27.77C32.9673 27.9124 32.6184 27.7904 32.476 27.4998ZM32.723 19.9588C30.8629 18.6309 28.4357 18.2879 26.1888 19.1569L32.3304 31.783C34.4002 30.5539 35.6269 28.4299 35.7315 26.1484L38.0625 26.3143C38.0944 26.3166 38.1265 26.3125 38.1568 26.3023C38.1872 26.2921 38.2152 26.276 38.2392 26.2549C38.2633 26.2338 38.2829 26.2081 38.297 26.1794C38.311 26.1506 38.3192 26.1194 38.3211 26.0874C38.3235 26.0555 38.3194 26.0235 38.3092 25.9932C38.2991 25.9629 38.283 25.9348 38.2619 25.9108C38.2408 25.8867 38.2152 25.8671 38.1865 25.853C38.1577 25.839 38.1265 25.8308 38.0946 25.8289L35.7342 25.6602C35.711 24.6665 35.4729 23.6524 34.9989 22.676C34.5252 21.7024 33.8741 20.8889 33.1067 20.2552L34.4322 18.2936C34.4671 18.2405 34.4796 18.1757 34.4672 18.1133C34.4548 18.051 34.4184 17.996 34.3659 17.9602C34.3133 17.9243 34.2488 17.9106 34.1862 17.9219C34.1236 17.9331 34.0679 17.9685 34.0312 18.0204L32.723 19.9561" fill="#3DDC84"/>
<path d="M27.0608 24.7128C25.3284 25.5498 23.4652 25.9739 21.5237 25.9739C19.408 25.9755 17.3253 25.4503 15.4635 24.4459C13.6017 23.4414 12.0193 21.9892 10.8593 20.2204C10.6763 19.9414 10.2984 19.8746 10.0282 20.0722L7.79872 21.7139C7.54589 21.8999 7.48761 22.2545 7.66478 22.5162C9.18999 24.791 11.2524 26.655 13.6696 27.9434C16.0869 29.2318 18.7844 29.9047 21.5237 29.9028C24.0612 29.9028 26.5 29.3479 28.77 28.2523L27.0608 24.7128ZM20.2973 10.7441H22.7098V8.07937C22.7098 7.41368 22.1691 6.87341 21.5036 6.87341C20.8377 6.87341 20.2973 7.41368 20.2973 8.07937V10.7441Z" fill="#4285F4"/>
<path d="M18.3643 15.9457L10.0715 33.0094C9.89225 33.3774 9.79506 33.7799 9.78663 34.1891L9.73722 36.4239C9.72564 37.0024 10.3942 37.3277 10.842 36.9615L12.5685 35.5433C12.8854 35.2838 13.1422 34.9587 13.3212 34.5904L21.4947 17.7676L18.367 15.9484L18.3643 15.9457ZM33.2229 34.1864C33.2144 33.7766 33.1156 33.3756 32.938 33.0067L24.6456 15.9426L21.5179 17.7676L29.6914 34.5843C29.8712 34.9522 30.1278 35.2773 30.4441 35.5375L32.1707 36.9557C32.6184 37.3219 33.2897 36.9962 33.2754 36.4181L33.226 34.1833L33.2229 34.1864Z" fill="#4285F4"/>
<path d="M21.5033 10.5318C19.5065 10.5318 17.8845 12.1565 17.8845 14.1497C17.8845 16.1433 19.5096 17.7676 21.5033 17.7676C23.4973 17.7676 25.122 16.1433 25.122 14.1497C25.122 12.1565 23.4973 10.5318 21.5033 10.5318ZM21.5033 16.1402C20.4078 16.1402 19.5123 15.2484 19.5123 14.1497C19.5123 13.0514 20.4047 12.1592 21.5033 12.1592C22.6022 12.1592 23.4946 13.0514 23.4946 14.1497C23.4946 15.2484 22.6022 16.1402 21.5033 16.1402Z" fill="#073042"/>
</svg>
