<svg width="44" height="44" viewBox="0 0 44 44" fill="none" xmlns="http://www.w3.org/2000/svg">
<path d="M6.87275 0H37.1273C40.9259 0 44 3.07338 44 6.87112V37.1289C44 40.9266 40.9259 44 37.1273 44H6.87275C3.07411 44 0 40.9266 0 37.1289V6.88147C0 3.07338 3.07411 0 6.87275 0Z" fill="#563D7C"/>
<path d="M16.858 19.7206V13.4896H22.3427C22.8652 13.4896 23.3688 13.5331 23.8538 13.6202C24.3389 13.7072 24.768 13.8626 25.1412 14.0865C25.5142 14.3105 25.8127 14.6214 26.0367 15.0193C26.2604 15.4174 26.3725 15.9273 26.3725 16.549C26.3725 17.6684 26.0367 18.4769 25.365 18.9743C24.6935 19.4719 23.8353 19.7206 22.7905 19.7206H16.858ZM11 8.9375V35.5781H23.9099C25.1039 35.5781 26.2668 35.4289 27.3986 35.1304C28.5304 34.8318 29.5377 34.3717 30.4208 33.7499C31.3038 33.128 32.0066 32.3257 32.5289 31.3433C33.0514 30.3607 33.3125 29.1978 33.3125 27.8546C33.3125 26.1879 32.9082 24.7639 32.0999 23.5825C31.2914 22.4008 30.0663 21.5737 28.4245 21.1011C29.6185 20.5291 30.5204 19.7952 31.1298 18.8997C31.7391 18.0042 32.0439 16.885 32.0439 15.5416C32.0439 14.2979 31.8386 13.2533 31.4282 12.4075C31.0178 11.5619 30.4394 10.884 29.6931 10.374C28.947 9.86408 28.0515 9.49712 27.0067 9.27334C25.9621 9.04939 24.8053 8.9375 23.5367 8.9375H11ZM16.858 31.026V23.7129H23.2382C24.5068 23.7129 25.5267 24.0051 26.2979 24.5898C27.0689 25.1744 27.4546 26.1506 27.4546 27.5187C27.4546 28.2153 27.3364 28.7873 27.1 29.2351C26.8637 29.6828 26.5466 30.0374 26.1485 30.2985C25.7507 30.5597 25.2904 30.7462 24.768 30.8583C24.2455 30.97 23.6985 31.026 23.1263 31.026H16.858Z" fill="white"/>
</svg>
