<svg width="44" height="44" viewBox="0 0 44 44" fill="none" xmlns="http://www.w3.org/2000/svg">
<path d="M6.87275 0H37.1273C40.9259 0 44 3.07338 44 6.87112V37.1289C44 40.9266 40.9259 44 37.1273 44H6.87275C3.07411 44 0 40.9266 0 37.1289V6.88147C0 3.07338 3.07411 0 6.87275 0Z" fill="#04011C"/>
<path fill-rule="evenodd" clip-rule="evenodd" d="M22.0209 21.9685C22.0209 19.1856 24.277 16.9294 27.0599 16.9294C29.8428 16.9294 32.099 19.1856 32.099 21.9685C32.099 24.7514 29.8428 27.0075 27.0599 27.0075C24.277 27.0075 22.0209 24.7514 22.0209 21.9685Z" fill="#1ABCFE"/>
<path fill-rule="evenodd" clip-rule="evenodd" d="M11.9428 32.0466C11.9428 29.2636 14.1988 27.0075 16.9818 27.0075H22.0209V32.0466C22.0209 34.8295 19.7647 37.0856 16.9818 37.0856C14.1988 37.0856 11.9428 34.8295 11.9428 32.0466Z" fill="#0ACF83"/>
<path fill-rule="evenodd" clip-rule="evenodd" d="M22.0209 6.85135V16.9294H27.0599C29.8428 16.9294 32.099 14.6733 32.099 11.8904C32.099 9.10741 29.8428 6.85135 27.0599 6.85135H22.0209Z" fill="#FF7262"/>
<path fill-rule="evenodd" clip-rule="evenodd" d="M11.9429 11.8905C11.9429 14.6734 14.1989 16.9295 16.9819 16.9295H22.021V6.85141H16.9819C14.1989 6.85141 11.9429 9.10747 11.9429 11.8905Z" fill="#F24E1E"/>
<path fill-rule="evenodd" clip-rule="evenodd" d="M11.9428 21.9685C11.9428 24.7514 14.1988 27.0075 16.9818 27.0075H22.0209V16.9294H16.9818C14.1988 16.9294 11.9428 19.1856 11.9428 21.9685Z" fill="#A259FF"/>
</svg>
