<svg width="44" height="44" viewBox="0 0 44 44" fill="none" xmlns="http://www.w3.org/2000/svg">
<path d="M6.87275 0H37.1273C40.9259 0 44 3.07338 44 6.87112V37.1289C44 40.9266 40.9259 44 37.1273 44H6.87275C3.07411 44 0 40.9266 0 37.1289V6.88147C0 3.07338 3.07411 0 6.87275 0Z" fill="#330000"/>
<path d="M21.3221 27.6513H14.5038L13.1166 32.0713C13.0781 32.2355 12.9269 32.3518 12.7624 32.3436H9.3089C9.11195 32.3436 9.04309 32.2327 9.10229 32.0106L15.0056 14.5731C15.0647 14.3915 15.1238 14.1847 15.1827 13.9526C15.26 13.5485 15.2994 13.1381 15.3009 12.7265C15.2839 12.6049 15.3907 12.4975 15.5073 12.5145H20.2006C20.3381 12.5145 20.4166 12.565 20.4366 12.6659L27.137 32.041C27.1959 32.2429 27.137 32.3438 26.9599 32.3436H23.1226C22.9881 32.359 22.8596 32.2668 22.8275 32.1318L21.3221 27.6513ZM15.5664 23.8368H20.2301C19.4639 21.2185 18.5991 18.6346 17.8983 15.996C17.1421 18.6392 16.3171 21.2716 15.5664 23.8368Z" fill="#FF9A00"/>
<path d="M31.1213 15.7234C30.8202 15.7358 30.5201 15.6829 30.2402 15.5681C29.9605 15.4534 29.7075 15.2793 29.4979 15.0574C29.2889 14.8258 29.1264 14.5543 29.02 14.258C28.9136 13.962 28.8654 13.6472 28.878 13.3318C28.8673 13.0196 28.9209 12.7086 29.0353 12.4191C29.1498 12.1296 29.3225 11.8681 29.5422 11.6516C29.7597 11.4375 30.0165 11.2697 30.2977 11.158C30.5789 11.0462 30.8789 10.9928 31.1803 11.0008C31.8888 11.0008 32.4446 11.2177 32.848 11.6516C33.0517 11.8771 33.2099 12.1416 33.3138 12.4299C33.4175 12.7182 33.465 13.0248 33.453 13.3318C33.4654 13.6483 33.4156 13.9643 33.3066 14.2607C33.1977 14.5571 33.0316 14.828 32.8185 15.0574C32.5958 15.2826 32.3299 15.458 32.0379 15.5727C31.7458 15.6873 31.4337 15.7386 31.1213 15.7234ZM29.0846 32.0408V17.5701C29.0846 17.3885 29.163 17.2977 29.3208 17.2977H32.9514C33.1086 17.2977 33.1873 17.3885 33.1874 17.5701V32.0408C33.1874 32.2429 33.1087 32.3438 32.9514 32.3436H29.3503C29.1732 32.3436 29.0846 32.2427 29.0846 32.0408Z" fill="#FF9A00"/>
</svg>
