<svg width="44" height="44" viewBox="0 0 44 44" fill="none" xmlns="http://www.w3.org/2000/svg">
<path d="M6.87275 0H37.1273C40.9259 0 44 3.07338 44 6.87112V37.1289C44 40.9266 40.9259 44 37.1273 44H6.87275C3.07411 44 0 40.9266 0 37.1289V6.88147C0 3.07338 3.07411 0 6.87275 0Z" fill="#49021F"/>
<path d="M15.6293 13.0179V31.2408C15.6293 31.4375 15.5465 31.5306 15.3705 31.5306H12.048C11.8928 31.5306 11.8203 31.4375 11.8203 31.2408V13.0179C11.8203 12.8627 11.9031 12.7902 12.0791 12.7902H15.4016C15.5154 12.7799 15.6189 12.8523 15.6293 12.9661C15.6396 12.9765 15.6396 12.9972 15.6293 13.0179Z" fill="#FF3366"/>
<path d="M26.4352 31.9238C25.1 31.9445 23.7751 31.6651 22.5538 31.1063C21.4152 30.5786 20.4733 29.73 19.8316 28.6538C19.1278 27.4017 18.7862 25.9737 18.8379 24.5353C18.8276 23.2004 19.1692 21.8862 19.8316 20.7272C20.5147 19.5475 21.5084 18.5748 22.709 17.9332C24.1167 17.1985 25.69 16.8363 27.2736 16.8881C27.3667 16.8881 27.5013 16.8881 27.6566 16.8984C27.8118 16.9087 28.1534 16.9191 28.3604 16.9398V11.445C28.3604 11.3104 28.4225 11.238 28.5364 11.238H31.9106C31.9934 11.2277 32.0762 11.2897 32.0866 11.3725C32.0866 11.3829 32.0866 11.4036 32.0866 11.4139V28.3744C32.0866 28.7056 32.0969 29.0677 32.128 29.4506C32.159 29.8335 32.1797 30.1853 32.2004 30.4958C32.2108 30.6199 32.1383 30.7338 32.0245 30.7855C31.124 31.1787 30.1821 31.4685 29.2195 31.6548C28.2983 31.8307 27.3668 31.9135 26.4352 31.9238ZM28.3604 28.3123V20.3754C28.1534 20.334 27.936 20.3029 27.729 20.2926C27.5324 20.2719 27.3357 20.2615 27.1287 20.2615C26.4249 20.2512 25.721 20.4167 25.0897 20.7272C23.7027 21.3895 22.8643 22.8278 22.9678 24.3594C22.9574 24.9906 23.0609 25.6218 23.268 26.222C23.4439 26.698 23.7234 27.143 24.0857 27.5052C24.4272 27.8363 24.8516 28.0847 25.307 28.2295C25.7935 28.3848 26.3006 28.4675 26.8078 28.4572C27.0769 28.4572 27.3357 28.4468 27.5634 28.4262C27.8325 28.4158 28.1016 28.3744 28.3604 28.3123Z" fill="#FF3366"/>
</svg>
