<svg width="44" height="44" viewBox="0 0 44 44" fill="none" xmlns="http://www.w3.org/2000/svg">
<path d="M6.87275 0H37.1273C40.9259 0 44 3.07338 44 6.87112V37.1289C44 40.9266 40.9259 44 37.1273 44H6.87275C3.07411 44 0 40.9266 0 37.1289V6.88147C0 3.07338 3.07411 0 6.87275 0Z" fill="#011E2C"/>
<path d="M24.3021 11.3151C23.1897 9.94568 22.2319 8.5549 22.0362 8.26605C22.0156 8.24465 21.9847 8.24465 21.9641 8.26605C21.7684 8.5549 20.8106 9.94568 19.6982 11.3151C10.1507 23.9497 21.2019 32.4763 21.2019 32.4763L21.2946 32.5405C21.377 33.8564 21.583 35.75 21.583 35.75H21.995H22.407C22.407 35.75 22.613 33.8671 22.6954 32.5405L22.788 32.4657C22.7983 32.4657 33.8495 23.9497 24.3021 11.3151ZM21.995 32.2837C21.995 32.2837 21.5006 31.8451 21.3667 31.6204V31.5991L21.9641 17.841C21.9641 17.7982 22.0259 17.7982 22.0259 17.841L22.6233 31.5991V31.6204C22.4894 31.8451 21.995 32.2837 21.995 32.2837Z" fill="#01ED64"/>
</svg>
