<svg width="44" height="44" viewBox="0 0 44 44" fill="none" xmlns="http://www.w3.org/2000/svg">
<path d="M6.87275 0H37.1273C40.9259 0 44 3.07338 44 6.87112V37.1289C44 40.9266 40.9259 44 37.1273 44H6.87275C3.07411 44 0 40.9266 0 37.1289V6.88147C0 3.07338 3.07411 0 6.87275 0Z" fill="#001E36"/>
<path d="M9.42853 32.2398V12.8911C9.42853 12.7596 9.48353 12.6843 9.61187 12.6843C11.5064 12.6843 13.4002 12.5715 15.2951 12.5715C18.3703 12.5715 21.6998 13.6229 22.8669 16.8398C23.1419 17.6296 23.2885 18.4381 23.2885 19.2843C23.2885 20.9015 22.9219 22.2364 22.1885 23.2894C20.14 26.2308 16.5895 26.1851 13.4069 26.1851V32.2211C13.4317 32.3998 13.2795 32.4843 13.1319 32.4843H9.64853C9.50187 32.4843 9.42853 32.409 9.42853 32.2398ZM13.4251 16.3134V22.6313C14.6872 22.7237 16.0076 22.7337 17.2201 22.3305C18.5588 21.9443 19.2919 20.7856 19.2919 19.3971C19.329 18.214 18.6844 17.0788 17.5869 16.6518C16.389 16.1537 14.7183 16.1238 13.4251 16.3134Z" fill="#31A8FF"/>
<path d="M34.7234 21.383C34.1687 21.0906 33.5778 20.8767 32.967 20.7472C32.1822 20.5626 29.0868 19.9158 29.0856 21.5344C29.1131 22.4379 30.5475 22.8806 31.1812 23.1388C33.4062 23.9027 35.924 25.2681 35.8745 28.0129C35.9425 31.4298 32.6318 32.7958 29.794 32.7962C28.3167 32.8114 26.7776 32.5826 25.4256 31.9484C25.2964 31.88 25.2134 31.734 25.2189 31.5851V28.3155C25.2043 28.1845 25.3451 28.0699 25.4551 28.1642C26.7798 28.9653 28.35 29.3544 29.8826 29.3752C30.5591 29.3752 31.8998 29.3096 31.8898 28.3155C31.8898 27.3617 30.2858 26.9231 29.6464 26.6808C28.7196 26.35 27.8408 25.8916 27.0342 25.3185C25.9069 24.5144 25.1997 23.2252 25.2189 21.8068C25.2123 18.5895 28.2598 17.1454 31.0043 17.1447C32.2872 17.134 33.665 17.2291 34.8593 17.7502C35.0311 17.8006 35.0666 17.9817 35.066 18.1437V21.2014C35.0768 21.3912 34.8661 21.4558 34.7234 21.383Z" fill="#31A8FF"/>
</svg>
