<svg width="44" height="44" viewBox="0 0 44 44" fill="none" xmlns="http://www.w3.org/2000/svg">
<path d="M6.87275 0H37.1273C40.9259 0 44 3.07338 44 6.87112V37.1289C44 40.9266 40.9259 44 37.1273 44H6.87275C3.07411 44 0 40.9266 0 37.1289V6.88147C0 3.07338 3.07411 0 6.87275 0Z" fill="#4B4B4B"/>
<path fill-rule="evenodd" clip-rule="evenodd" d="M34.375 22.4925C34.375 22.1313 34.0888 21.923 33.7375 22.0266L9.57494 29.1731C9.22301 29.2773 8.9375 29.655 8.9375 30.0155V37.3197C8.9375 37.6809 9.22301 37.8899 9.57494 37.7857L33.7375 30.6398C34.0888 30.5356 34.375 30.1579 34.375 29.7967V22.4925Z" fill="url(#paint0_linear_193_251)"/>
<path fill-rule="evenodd" clip-rule="evenodd" d="M8.9375 21.5459C8.9375 21.907 9.22297 22.2847 9.57485 22.3889L33.7376 29.5357C34.0895 29.6399 34.375 29.4309 34.375 29.0704V21.7661C34.375 21.4055 34.0895 21.0279 33.7376 20.9237L9.57485 13.7768C9.22297 13.6727 8.9375 13.881 8.9375 14.2422V21.5459Z" fill="#FF9800"/>
<path fill-rule="evenodd" clip-rule="evenodd" d="M34.375 6.01422C34.375 5.63729 34.0888 5.41926 33.7375 5.52794L9.57494 12.9846C9.22301 13.0933 8.9375 13.4874 8.9375 13.8643V21.4861C8.9375 21.8629 9.22301 22.0803 9.57494 21.9723L33.7375 14.515C34.0888 14.4063 34.375 14.0122 34.375 13.636V6.01422Z" fill="#FF9800"/>
<defs>
<linearGradient id="paint0_linear_193_251" x1="22.9579" y1="32.9963" x2="25.4956" y2="26.3398" gradientUnits="userSpaceOnUse">
<stop stop-color="#FF9700"/>
<stop offset="0.53" stop-color="#F48E00"/>
<stop offset="1" stop-color="#D06F00"/>
</linearGradient>
</defs>
</svg>
