<svg width="44" height="44" viewBox="0 0 44 44" fill="none" xmlns="http://www.w3.org/2000/svg">
<path d="M6.87275 0H37.1273C40.9259 0 44 3.07338 44 6.87112V37.1289C44 40.9266 40.9259 44 37.1273 44H6.87275C3.07411 44 0 40.9266 0 37.1289V6.88147C0 3.07338 3.07411 0 6.87275 0Z" fill="white"/>
<path fill-rule="evenodd" clip-rule="evenodd" d="M14.1257 38.0245L6.28571 6.28571L37.7143 15.3342L14.1257 38.0245Z" stroke="black" stroke-width="0.923628" stroke-miterlimit="10" stroke-linejoin="round"/>
<path fill-rule="evenodd" clip-rule="evenodd" d="M21.994 10.8108L25.9112 26.6849L10.2056 22.1593L21.994 10.8108Z" stroke="black" stroke-width="0.923628" stroke-miterlimit="10" stroke-linejoin="round"/>
<path fill-rule="evenodd" clip-rule="evenodd" d="M18.0971 24.3123L16.1515 16.4266L23.9543 18.6665L18.0971 24.3123Z" stroke="black" stroke-width="0.923628" stroke-miterlimit="10" stroke-linejoin="round"/>
<path fill-rule="evenodd" clip-rule="evenodd" d="M14.2051 8.55038L16.1508 16.4361L8.34796 14.1962L14.2051 8.55038Z" stroke="black" stroke-width="0.923628" stroke-miterlimit="10" stroke-linejoin="round"/>
<path fill-rule="evenodd" clip-rule="evenodd" d="M29.81 13.0456L31.7556 20.9313L23.9528 18.6914L29.81 13.0456Z" stroke="black" stroke-width="0.923628" stroke-miterlimit="10" stroke-linejoin="round"/>
<path fill-rule="evenodd" clip-rule="evenodd" d="M18.098 24.3177L20.0436 32.2034L12.2408 29.9635L18.098 24.3177Z" stroke="black" stroke-width="0.923628" stroke-miterlimit="10" stroke-linejoin="round"/>
</svg>
