<svg width="44" height="44" viewBox="0 0 44 44" fill="none" xmlns="http://www.w3.org/2000/svg">
<path d="M6.87275 0H37.1273C40.9259 0 44 3.07338 44 6.87112V37.1289C44 40.9266 40.9259 44 37.1273 44H6.87275C3.07411 44 0 40.9266 0 37.1289V6.88147C0 3.07338 3.07411 0 6.87275 0Z" fill="white"/>
<path d="M34.5606 23.4438C33.6832 23.4438 32.9725 24.1545 32.9725 25.0319V30.7269L28.9895 26.7439C28.9919 26.7018 29.0022 26.6621 29.0022 26.62V23.0468C29.0022 22.8276 28.8243 22.6497 28.6052 22.6497H26.223C26.0038 22.6497 25.8259 22.8276 25.8259 23.0468V24.2378C25.8259 25.1153 25.1153 25.826 24.2378 25.826H23.0467C22.8276 25.826 22.6497 26.0038 22.6497 26.223V28.6052C22.6497 28.8243 22.8276 29.0022 23.0467 29.0022H26.62C26.6621 29.0022 26.7018 28.9919 26.7439 28.9895L30.7269 32.9725H25.0319C24.1544 32.9725 23.4438 33.6832 23.4438 34.5607C23.4438 35.4381 24.1544 36.1488 25.0319 36.1488H34.5606C35.4381 36.1488 36.1488 35.4381 36.1488 34.5607V25.0319C36.1488 24.1545 35.4381 23.4438 34.5606 23.4438Z" fill="url(#paint0_linear_193_240)"/>
<path d="M34.5606 7.5625H25.0319C24.1544 7.5625 23.4438 8.27319 23.4438 9.15063C23.4438 10.0281 24.1544 10.7388 25.0319 10.7388H30.7269L26.7439 14.7218C26.7018 14.7194 26.6621 14.7091 26.62 14.7091H23.0467C22.8276 14.7091 22.6497 14.8869 22.6497 15.1061V17.4883C22.6497 17.7074 22.8276 17.8853 23.0467 17.8853H24.2378C25.1153 17.8853 25.8259 18.596 25.8259 19.4734V20.6645C25.8259 20.8837 26.0038 21.0616 26.223 21.0616H28.6052C28.8243 21.0616 29.0022 20.8837 29.0022 20.6645V17.0913C29.0022 17.0492 28.9919 17.0095 28.9895 16.9674L32.9725 12.9844V18.6794C32.9725 19.5568 33.6832 20.2675 34.5606 20.2675C35.4381 20.2675 36.1488 19.5568 36.1488 18.6794V9.15063C36.1488 8.27319 35.4381 7.5625 34.5606 7.5625Z" fill="url(#paint1_linear_193_240)"/>
<path d="M20.6645 14.7091H17.0913C17.0492 14.7091 17.0095 14.7194 16.9674 14.7218L12.9844 10.7388H18.6794C19.5568 10.7388 20.2675 10.0281 20.2675 9.15063C20.2675 8.27319 19.5568 7.5625 18.6794 7.5625H9.15063C8.27319 7.5625 7.5625 8.27319 7.5625 9.15063V18.6794C7.5625 19.5568 8.27319 20.2675 9.15063 20.2675C10.0281 20.2675 10.7388 19.5568 10.7388 18.6794V12.9844L14.7218 16.9674C14.7194 17.0095 14.7091 17.0492 14.7091 17.0913V20.6645C14.7091 20.8837 14.8869 21.0616 15.1061 21.0616H17.4883C17.7074 21.0616 17.8853 20.8837 17.8853 20.6645V19.4734C17.8853 18.596 18.596 17.8853 19.4734 17.8853H20.6645C20.8837 17.8853 21.0616 17.7074 21.0616 17.4883V15.1061C21.0616 14.8869 20.8837 14.7091 20.6645 14.7091Z" fill="url(#paint2_linear_193_240)"/>
<defs>
<linearGradient id="paint0_linear_193_240" x1="19.5957" y1="1.77064" x2="32.6422" y2="37.6154" gradientUnits="userSpaceOnUse">
<stop stop-color="#FFDA1C"/>
<stop offset="1" stop-color="#FEB705"/>
</linearGradient>
<linearGradient id="paint1_linear_193_240" x1="24.7532" y1="0.450082" x2="37.9259" y2="36.6403" gradientUnits="userSpaceOnUse">
<stop stop-color="#FFDA1C"/>
<stop offset="1" stop-color="#FEB705"/>
</linearGradient>
<linearGradient id="paint2_linear_193_240" x1="10.5005" y1="4.53474" x2="23.547" y2="40.3795" gradientUnits="userSpaceOnUse">
<stop stop-color="#FFDA1C"/>
<stop offset="1" stop-color="#FEB705"/>
</linearGradient>
</defs>
</svg>
