<svg width="44" height="44" viewBox="0 0 44 44" fill="none" xmlns="http://www.w3.org/2000/svg">
<path d="M6.87275 0H37.1273C40.9259 0 44 3.07338 44 6.87112V37.1289C44 40.9266 40.9259 44 37.1273 44H6.87275C3.07411 44 0 40.9266 0 37.1289V6.88147C0 3.07338 3.07411 0 6.87275 0Z" fill="#232937"/>
<path d="M36.5392 9.7636L30.1082 6.66745C29.745 6.49234 29.3364 6.43455 28.9389 6.5021C28.5414 6.56965 28.1747 6.75918 27.8898 7.04443L6.83802 26.237C6.5826 26.4687 6.4297 26.7925 6.41297 27.137C6.39624 27.4815 6.51704 27.8185 6.74879 28.0739C6.77667 28.104 6.80456 28.133 6.83467 28.1598L8.55339 29.7212C8.77797 29.9256 9.06706 30.0449 9.37044 30.0584C9.67382 30.0718 9.97232 29.9786 10.2141 29.7949L35.5711 10.5666C35.7626 10.4213 35.9909 10.3323 36.2302 10.3097C36.4696 10.2871 36.7105 10.3317 36.9259 10.4386C37.1413 10.5454 37.3225 10.7103 37.4493 10.9146C37.576 11.1189 37.6432 11.3545 37.6433 11.595V11.5202C37.6433 11.1532 37.5397 10.7936 37.3443 10.4828C37.149 10.1721 36.8699 9.92276 36.5392 9.7636Z" fill="#0065A9"/>
<path d="M36.5392 34.2338L30.1082 37.331C29.7449 37.5056 29.3364 37.5631 28.939 37.4956C28.5416 37.4281 28.175 37.2389 27.8898 36.954L6.83803 17.7604C6.58261 17.5286 6.42972 17.2049 6.41299 16.8604C6.39625 16.5159 6.51705 16.1789 6.74881 15.9234C6.77669 15.8933 6.80457 15.8643 6.83469 15.8376L8.5534 14.2761C8.77822 14.0708 9.06797 13.951 9.37209 13.9376C9.67622 13.9241 9.97541 14.0179 10.2175 14.2025L35.5711 33.4307C35.7626 33.5761 35.9909 33.665 36.2303 33.6877C36.4696 33.7103 36.7105 33.6657 36.9259 33.5588C37.1413 33.4519 37.3225 33.2871 37.4493 33.0827C37.576 32.8784 37.6432 32.6428 37.6433 32.4024V32.4827C37.6421 32.8488 37.538 33.2071 37.3427 33.5168C37.1474 33.8264 36.869 34.0749 36.5392 34.2338Z" fill="#007ACC"/>
<path d="M30.1083 37.3309C29.745 37.5056 29.3364 37.5631 28.9391 37.4955C28.5417 37.428 28.1751 37.2388 27.8899 36.954C28.05 37.112 28.2533 37.2193 28.4742 37.2624C28.6951 37.3055 28.9237 37.2824 29.1316 37.196C29.3394 37.1097 29.5171 36.9639 29.6424 36.777C29.7677 36.5901 29.8351 36.3704 29.8361 36.1454V7.85175C29.8363 7.62567 29.7694 7.40461 29.6438 7.21658C29.5183 7.02856 29.3398 6.88203 29.1309 6.79555C28.922 6.70908 28.6921 6.68655 28.4704 6.73083C28.2487 6.7751 28.0451 6.88419 27.8854 7.04426C28.1704 6.75912 28.537 6.56957 28.9344 6.50183C29.3318 6.4341 29.7404 6.49152 30.1038 6.66616L36.5337 9.75785C36.8655 9.91622 37.1457 10.1652 37.3421 10.476C37.5384 10.7868 37.6429 11.1468 37.6434 11.5145V32.4826C37.6435 32.85 37.5398 33.2099 37.3442 33.5209C37.1487 33.8319 36.8693 34.0813 36.5381 34.2404L30.1083 37.3309Z" fill="#1F9CF0"/>
</svg>
