<svg width="44" height="44" viewBox="0 0 44 44" fill="none" xmlns="http://www.w3.org/2000/svg">
<path d="M6.87275 0H37.1273C40.9259 0 44 3.07338 44 6.87112V37.1289C44 40.9266 40.9259 44 37.1273 44H6.87275C3.07411 44 0 40.9266 0 37.1289V6.88147C0 3.07338 3.07411 0 6.87275 0Z" fill="#1A1A1A"/>
<path d="M30.4071 9.42859H36.2411L21.6562 34.5874L7.07143 9.42859H12.8324H18.2288L21.6562 15.2625L25.0108 9.42859H30.4071Z" fill="#41B883"/>
<path d="M7.07143 9.42859L21.6562 34.5874L36.2411 9.42859H30.4071L21.6562 24.5239L12.8324 9.42859H7.07143Z" fill="#41B883"/>
<path d="M12.8325 9.42859L21.6563 24.5968L30.4072 9.42859H25.0108L21.6563 15.2625L18.2289 9.42859H12.8325Z" fill="#35495E"/>
</svg>
