<svg width="44" height="44" viewBox="0 0 44 44" fill="none" xmlns="http://www.w3.org/2000/svg">
<path d="M6.87275 0H37.1273C40.9259 0 44 3.07338 44 6.87112V37.1289C44 40.9266 40.9259 44 37.1273 44H6.87275C3.07411 44 0 40.9266 0 37.1289V6.88147C0 3.07338 3.07411 0 6.87275 0Z" fill="#7A12CD"/>
<g clip-path="url(#clip0_355_1135)">
<path d="M17.2333 11.2763C17.6898 10.8961 18.2985 10.8961 18.755 11.3524C19.8202 12.417 20.9615 13.5577 22.0266 14.6223L20.4289 16.2953L18.3746 14.2421C18.1463 14.014 17.842 14.014 17.5377 14.166L17.4616 14.2421C15.0269 16.5995 12.6683 19.033 10.2336 21.4664C10.0053 21.6946 9.92924 22.0748 10.1575 22.3029L10.2336 22.379L17.0812 29.2231C17.2333 29.4512 17.4616 29.6033 17.6898 29.7554C17.9181 29.8314 18.2224 29.7554 18.3746 29.6033L20.5 27.5L22.1562 29.2231L18.9072 32.341C18.6789 32.5691 18.4507 32.7212 18.2224 32.8733C17.7659 33.0254 17.3094 32.8733 17.0051 32.5691C13.8095 29.3752 10.5379 26.1052 7.34238 22.9113C6.88587 22.455 6.88587 21.6946 7.34238 21.2383C10.6901 17.8162 13.9617 14.5463 17.2333 11.2763Z" fill="#E3CCF4"/>
<path d="M25.2983 11.3422C25.7548 10.8859 26.5156 10.8859 26.9721 11.3422L36.6348 21C36.9391 21.3042 37.0913 21.7605 36.9391 22.2167C36.787 22.5209 36.5587 22.749 36.3305 22.9772L27.2764 32.1027C27.0482 32.3308 26.8199 32.5589 26.5156 32.711C26.0591 32.8631 25.6026 32.711 25.2983 32.4068L22.0266 29.2129L20.4289 27.616L15.5595 22.749C15.103 22.2928 15.103 21.5323 15.5595 21.1521L20.3528 16.3612L22.0266 14.6882C23.0918 13.5475 24.2331 12.4829 25.2983 11.3422Z" fill="#FFFEFF"/>
</g>
<defs>
<clipPath id="clip0_355_1135">
<rect width="30" height="22" fill="white" transform="translate(7 11)"/>
</clipPath>
</defs>
</svg>
