<?xml version="1.0" encoding="UTF-8"?>
<svg id="Layer_2" data-name="Layer 2" xmlns="http://www.w3.org/2000/svg" viewBox="0 0 1655.23 966.64">
  <defs>
    <style>
      .cls-1 {
        fill: #fff;
      }

      .cls-2 {
        fill: #2638b7;
      }
    </style>
  </defs>
  <path d="m154.49,435.46v-231h32.2v231h-32.2Zm17.15-70.7v-27.3h56.7c22.16,0,38.85-4.25,50.05-12.77,11.2-8.52,16.8-22.23,16.8-41.12,0-17.5-5.2-30.62-15.57-39.38-10.39-8.75-26.31-13.12-47.77-13.12h-60.2v-26.6h60.9c15.17,0,28.64,1.75,40.43,5.25,11.78,3.5,21.75,8.64,29.92,15.4,8.17,6.77,14.4,15.11,18.73,25.02,4.31,9.92,6.48,21.41,6.48,34.48,0,17.27-3.97,31.85-11.9,43.75-7.94,11.9-19.6,20.95-35,27.12-15.4,6.19-34.3,9.27-56.7,9.27h-52.85Z"/>
  <path d="m651.72,435.46v-231h80.5c11.66,0,22.34.94,32.02,2.8,9.68,1.87,18.31,4.67,25.9,8.4,7.58,3.73,14,8.29,19.25,13.65,5.25,5.37,9.21,11.61,11.9,18.73,2.68,7.12,4.03,15,4.03,23.62,0,8.17-1.23,15.63-3.67,22.4-2.45,6.77-6.12,12.72-11.03,17.85-4.9,5.13-10.97,9.27-18.2,12.42-7.23,3.15-15.63,5.31-25.2,6.48v4.55c8.4.94,15.75,3.15,22.05,6.65,6.3,3.5,11.66,8.58,16.1,15.23,4.43,6.65,8.28,15.46,11.55,26.43l14.7,51.8h-34.65l-11.9-47.25c-2.1-9.56-5.66-17.26-10.68-23.1-5.02-5.83-11.26-10.15-18.73-12.95-7.47-2.8-16.22-4.2-26.25-4.2h-45.5v87.5h-32.2Zm32.2-113.75h45.5c20.77,0,36.46-3.73,47.08-11.2,10.61-7.46,15.92-18.9,15.92-34.3s-5.07-26.77-15.22-34.12c-10.15-7.35-25.85-11.02-47.08-11.02h-46.2v90.65Z"/>
  <path d="m898.49,232.46v-28h172.9v28h-172.9Zm70.35,203v-231h32.2v231h-32.2Z"/>
  <path d="m484.97,765.15v-231h32.2v231h-32.2Zm12.6-202.65v-28.35h147.7v28.35h-147.7Zm0,103.6v-27.65h132.65v27.65h-132.65Z"/>
  <path d="m969.43,765.15v-231h32.2v231h-32.2Zm10.5,0v-28h129.5v28h-129.5Z"/>
  <path d="m1168.43,765.15v-231h32.55v231h-32.55Z"/>
  <g>
    <ellipse class="cls-2" cx="807.35" cy="649.65" rx="78.64" ry="101.33"/>
    <path class="cls-2" d="m807.17,769.7c-16.8,0-31.56-2.8-44.27-8.4-12.72-5.6-23.45-13.65-32.2-24.15s-15.35-23.04-19.77-37.62c-4.44-14.58-6.65-30.97-6.65-49.17,0-26.6,4.43-48.83,13.3-66.67,8.86-17.85,21.11-31.33,36.75-40.43,15.63-9.1,33.36-13.65,53.2-13.65,15.63,0,29.75,2.68,42.35,8.05,12.6,5.37,23.39,13.3,32.38,23.8,8.98,10.5,15.93,23.28,20.83,38.33s7.35,32.15,7.35,51.28c0,17.97-2.28,34.25-6.83,48.82-4.55,14.59-11.2,27.07-19.95,37.45-8.75,10.39-19.49,18.38-32.2,23.98-12.72,5.6-27.48,8.4-44.27,8.4Zm.35-27.65c14.93,0,27.59-3.55,37.97-10.68,10.38-7.11,18.31-17.38,23.8-30.8,5.48-13.42,8.22-29.69,8.22-48.83s-2.8-36.69-8.4-50.57c-5.6-13.88-13.65-24.55-24.15-32.03-10.5-7.46-23.22-11.2-38.15-11.2s-26.6,3.62-37.1,10.85c-10.5,7.23-18.55,17.73-24.15,31.5-5.6,13.77-8.4,30.68-8.4,50.75,0,14.47,1.57,27.36,4.73,38.67,3.15,11.32,7.7,20.88,13.65,28.7,5.95,7.82,13.3,13.71,22.05,17.67,8.75,3.97,18.73,5.95,29.93,5.95Z"/>
    <path class="cls-1" d="m839.35,649.65c-22.97,4.98-27.02,9.03-32,32-4.98-22.97-9.03-27.02-32-32,22.97-4.98,27.02-9.03,32-32,4.98,22.97,9.03,27.02,32,32Z"/>
  </g>
  <g>
    <path d="m1045.12,399.41v-3.21l7.05-5.37c.44-.36.89-.74,1.35-1.15.46-.41.88-.86,1.27-1.37.39-.5.71-1.03.96-1.59.25-.56.38-1.16.38-1.8s-.15-1.24-.45-1.74c-.3-.5-.75-.89-1.33-1.15-.59-.27-1.33-.41-2.21-.41-.6,0-1.16.08-1.68.24-.52.16-.97.44-1.35.84-.38.4-.67.93-.85,1.59-.19.66-.29,1.48-.29,2.46l-2.64-.45c-.04-1.44.19-2.69.69-3.77.5-1.07,1.26-1.89,2.29-2.48,1.03-.58,2.33-.87,3.88-.87,1.34,0,2.51.22,3.51.66,1,.44,1.78,1.08,2.33,1.91s.83,1.81.83,2.95c0,.94-.16,1.81-.48,2.6-.32.79-.73,1.51-1.23,2.16s-1.04,1.23-1.63,1.74c-.59.51-1.17.97-1.73,1.37l-5.67,4.32v.27l11.22-.12v2.37h-14.22Z"/>
    <path d="m1070.26,399.83c-1.2,0-2.29-.24-3.27-.72s-1.81-1.17-2.5-2.07c-.69-.9-1.22-1.97-1.59-3.23-.37-1.25-.55-2.64-.55-4.18,0-2.2.34-4.08,1.02-5.62s1.62-2.73,2.82-3.56c1.2-.82,2.58-1.23,4.14-1.23s3.02.44,4.19,1.31c1.17.87,2.07,2.08,2.7,3.63.63,1.55.95,3.37.95,5.44,0,1.52-.18,2.91-.54,4.17-.36,1.26-.89,2.34-1.59,3.24s-1.53,1.6-2.49,2.08-2.05.73-3.27.73Zm0-2.37c.74,0,1.42-.17,2.04-.49.62-.33,1.16-.83,1.63-1.49.47-.66.83-1.48,1.09-2.47.26-.99.39-2.16.39-3.5,0-1.66-.22-3.08-.65-4.26-.43-1.18-1.03-2.09-1.8-2.73-.77-.64-1.67-.96-2.69-.96-.92,0-1.77.28-2.56.83-.79.55-1.43,1.41-1.92,2.58-.49,1.17-.74,2.69-.74,4.54,0,1.3.13,2.44.39,3.44.26.99.62,1.82,1.08,2.49.46.67,1.01,1.18,1.64,1.52.63.34,1.32.51,2.08.51Z"/>
    <path d="m1081.42,399.41v-3.21l7.05-5.37c.44-.36.89-.74,1.35-1.15.46-.41.88-.86,1.27-1.37.39-.5.71-1.03.96-1.59.25-.56.38-1.16.38-1.8s-.15-1.24-.45-1.74c-.3-.5-.75-.89-1.33-1.15-.59-.27-1.33-.41-2.21-.41-.6,0-1.16.08-1.68.24-.52.16-.97.44-1.35.84-.38.4-.67.93-.85,1.59-.19.66-.29,1.48-.29,2.46l-2.64-.45c-.04-1.44.19-2.69.69-3.77.5-1.07,1.26-1.89,2.29-2.48,1.03-.58,2.33-.87,3.88-.87,1.34,0,2.51.22,3.51.66,1,.44,1.78,1.08,2.33,1.91s.83,1.81.83,2.95c0,.94-.16,1.81-.48,2.6-.32.79-.73,1.51-1.23,2.16s-1.04,1.23-1.63,1.74c-.59.51-1.17.97-1.73,1.37l-5.67,4.32v.27l11.22-.12v2.37h-14.22Z"/>
    <path d="m1105.84,399.83c-1.42,0-2.65-.21-3.67-.65-1.03-.43-1.83-1.04-2.39-1.84s-.85-1.75-.87-2.85l2.55-.63c.1,1.14.5,2.02,1.18,2.65.69.63,1.74.94,3.13.94s2.6-.38,3.41-1.15c.81-.77,1.21-1.98,1.21-3.62,0-.6-.06-1.17-.19-1.72-.13-.55-.34-1.04-.63-1.47-.29-.43-.68-.77-1.18-1.02-.5-.25-1.12-.38-1.86-.38-.62,0-1.17.08-1.63.24s-.87.38-1.18.65c-.32.27-.58.57-.79.9s-.38.67-.5,1.03h-3.09l.63-11.31h12.3v2.4h-9.93l-.45,7.08h.36c.42-1.18,1.1-2.01,2.03-2.51.93-.49,1.93-.73,3.01-.73,1.36,0,2.48.29,3.35.85.87.57,1.52,1.36,1.95,2.37.43,1.01.65,2.2.65,3.56,0,1.72-.33,3.11-.97,4.17-.65,1.06-1.53,1.83-2.64,2.31-1.11.48-2.37.72-3.76.72Z"/>
    <path d="m1046.23,435.41v-19.8h2.76v19.8h-2.76Zm1.47,0v-2.37h5.85c1.36,0,2.48-.31,3.36-.94s1.54-1.5,1.96-2.62c.43-1.12.65-2.42.65-3.9,0-1.3-.13-2.43-.41-3.39-.27-.96-.69-1.74-1.25-2.35-.56-.61-1.26-1.07-2.11-1.38-.85-.31-1.86-.47-3.02-.47h-5.04v-2.37h4.98c2.24,0,4.07.39,5.49,1.17,1.42.78,2.47,1.9,3.15,3.36.68,1.46,1.02,3.2,1.02,5.22,0,1.34-.15,2.55-.44,3.63s-.7,2.02-1.23,2.82c-.53.8-1.16,1.47-1.88,2-.72.53-1.52.93-2.4,1.2s-1.8.4-2.76.4h-5.94Z"/>
    <path d="m1070.14,435.8c-.84,0-1.6-.17-2.28-.5-.68-.33-1.22-.82-1.62-1.47-.4-.65-.6-1.47-.6-2.47,0-.74.13-1.39.4-1.95.27-.56.69-1.04,1.26-1.44.57-.4,1.3-.73,2.2-.99.9-.26,2-.48,3.3-.66.74-.1,1.34-.2,1.81-.3.47-.1.81-.26,1.04-.49.22-.23.33-.57.33-1.04,0-.76-.26-1.4-.78-1.92s-1.34-.78-2.46-.78c-.58,0-1.17.1-1.77.3-.6.2-1.12.54-1.58,1-.45.47-.74,1.12-.86,1.96l-2.52-.84c.16-.72.42-1.37.79-1.95.37-.58.84-1.07,1.42-1.48.58-.41,1.25-.72,2.03-.94.77-.22,1.62-.33,2.56-.33,1.3,0,2.39.22,3.25.66.87.44,1.52,1.12,1.95,2.03s.65,2.08.65,3.49v3.45c0,.62.01,1.3.04,2.02.03.73.08,1.46.13,2.19.06.73.12,1.42.18,2.06h-2.52c-.06-.64-.12-1.28-.17-1.92s-.08-1.28-.11-1.92h-.39c-.3.74-.7,1.43-1.2,2.07-.5.64-1.12,1.16-1.88,1.56s-1.63.6-2.65.6Zm.81-2.22c.44,0,.88-.07,1.33-.21.45-.14.9-.37,1.35-.69.45-.32.88-.73,1.29-1.23.41-.5.78-1.1,1.1-1.8v-3l.78.15c-.32.32-.75.56-1.27.72-.53.16-1.12.29-1.75.39-.64.1-1.28.21-1.92.31-.64.11-1.23.27-1.76.48-.53.21-.96.51-1.27.89-.32.38-.48.9-.48,1.56,0,.8.24,1.41.72,1.81.48.41,1.11.61,1.89.61Z"/>
    <path d="m1083.28,435.41v-15.51h2.46l-.27,4.92h.51c.28-1.22.65-2.22,1.12-3,.47-.78,1.06-1.36,1.79-1.74.72-.38,1.56-.57,2.52-.57,1.72,0,3.02.61,3.92,1.84.89,1.23,1.33,3.07,1.33,5.51v8.55h-2.76v-8.31c0-1.76-.28-3.06-.83-3.9-.55-.84-1.36-1.26-2.42-1.26-.96,0-1.78.3-2.45.9-.67.6-1.2,1.39-1.57,2.37-.38.98-.59,2.04-.63,3.18v7.02h-2.73Z"/>
    <path d="m1102.57,417.2c-.64,0-1.12-.13-1.44-.39-.32-.26-.48-.65-.48-1.17s.16-.91.48-1.17c.32-.26.79-.39,1.41-.39s1.12.13,1.44.39c.32.26.48.65.48,1.17s-.16.89-.48,1.15c-.32.27-.79.41-1.41.41Zm-1.38,18.21v-15.51h2.73v15.51h-2.73Z"/>
    <path d="m1115.32,435.8c-1.22,0-2.29-.19-3.23-.56-.93-.37-1.71-.9-2.35-1.6-.64-.7-1.12-1.53-1.44-2.49-.32-.96-.48-2.04-.48-3.24s.16-2.34.48-3.36.79-1.91,1.41-2.67,1.38-1.35,2.28-1.76c.9-.41,1.93-.61,3.09-.61,1.02,0,1.95.17,2.79.51.84.34,1.55.87,2.14,1.58s1.04,1.6,1.33,2.67c.3,1.07.42,2.33.36,3.77l-12.18.09v-1.86l10.53-.09-.93,1.26c.1-1.26-.02-2.3-.36-3.12-.34-.82-.83-1.44-1.46-1.86-.63-.42-1.38-.63-2.24-.63-.92,0-1.73.24-2.43.72-.7.48-1.24,1.17-1.61,2.07-.37.9-.55,1.99-.55,3.27,0,1.84.41,3.25,1.23,4.21.82.97,2.03,1.46,3.63,1.46.64,0,1.2-.08,1.67-.23s.87-.36,1.2-.63.6-.58.81-.95c.21-.36.38-.75.5-1.17l2.4.57c-.18.72-.46,1.36-.83,1.93-.37.57-.83,1.06-1.38,1.46-.55.4-1.18.71-1.91.93-.72.22-1.55.33-2.49.33Z"/>
    <path d="m1125.58,435.41v-21h2.73v21h-2.73Z"/>
    <path d="m1136.59,435.8c-.84,0-1.6-.17-2.28-.5-.68-.33-1.22-.82-1.62-1.47-.4-.65-.6-1.47-.6-2.47,0-.74.13-1.39.4-1.95.27-.56.69-1.04,1.26-1.44.57-.4,1.3-.73,2.2-.99.9-.26,2-.48,3.3-.66.74-.1,1.34-.2,1.81-.3.47-.1.81-.26,1.04-.49.22-.23.33-.57.33-1.04,0-.76-.26-1.4-.78-1.92s-1.34-.78-2.46-.78c-.58,0-1.17.1-1.77.3-.6.2-1.12.54-1.58,1-.45.47-.74,1.12-.86,1.96l-2.52-.84c.16-.72.42-1.37.79-1.95.37-.58.84-1.07,1.42-1.48.58-.41,1.25-.72,2.03-.94.77-.22,1.62-.33,2.56-.33,1.3,0,2.39.22,3.25.66.87.44,1.52,1.12,1.95,2.03s.65,2.08.65,3.49v3.45c0,.62.01,1.3.04,2.02.03.73.08,1.46.13,2.19.06.73.12,1.42.18,2.06h-2.52c-.06-.64-.12-1.28-.17-1.92s-.08-1.28-.11-1.92h-.39c-.3.74-.7,1.43-1.2,2.07-.5.64-1.12,1.16-1.88,1.56s-1.63.6-2.65.6Zm.81-2.22c.44,0,.88-.07,1.33-.21.45-.14.9-.37,1.35-.69.45-.32.88-.73,1.29-1.23.41-.5.78-1.1,1.1-1.8v-3l.78.15c-.32.32-.75.56-1.27.72-.53.16-1.12.29-1.75.39-.64.1-1.28.21-1.92.31-.64.11-1.23.27-1.76.48-.53.21-.96.51-1.27.89-.32.38-.48.9-.48,1.56,0,.8.24,1.41.72,1.81.48.41,1.11.61,1.89.61Z"/>
    <path d="m1157.53,435.41v-19.8h4.26l6.57,16.92h.15l6.54-16.92h4.11v19.8h-2.61l.18-17.01h-.24l-6.81,17.01h-2.7l-6.75-17.04h-.24l.18,17.04h-2.64Z"/>
    <path d="m1190.77,435.8c-1.48,0-2.79-.33-3.92-.98-1.13-.65-2.01-1.58-2.64-2.81-.63-1.22-.94-2.7-.94-4.44s.33-3.29,1-4.48c.67-1.19,1.56-2.08,2.68-2.69s2.37-.9,3.75-.9,2.73.31,3.86.94,2.02,1.55,2.68,2.76.99,2.71.99,4.48-.33,3.27-.97,4.47c-.65,1.2-1.54,2.11-2.67,2.72-1.13.61-2.41.92-3.83.92Zm.12-2.25c.96,0,1.78-.23,2.47-.71.69-.47,1.22-1.13,1.59-2,.37-.86.55-1.88.55-3.06s-.19-2.27-.58-3.17c-.39-.89-.94-1.58-1.67-2.07-.72-.49-1.59-.73-2.61-.73-.94,0-1.75.22-2.45.66-.69.44-1.23,1.09-1.6,1.94-.38.85-.57,1.89-.57,3.1,0,1.88.43,3.36,1.3,4.43s2.06,1.6,3.56,1.6Z"/>
    <path d="m1202.14,435.41v-15.51h2.46l-.24,5.4h.51c.18-1.18.46-2.2.84-3.06.38-.86.88-1.53,1.51-2.01s1.42-.72,2.35-.72c.2,0,.43.02.69.04s.56.1.9.23l-.15,2.85c-.3-.12-.6-.21-.9-.26-.3-.05-.59-.07-.87-.07-.78,0-1.46.25-2.03.75s-1.04,1.17-1.42,2.02c-.38.85-.69,1.81-.93,2.86v7.47h-2.73Z"/>
    <path d="m1220.5,435.8c-1.22,0-2.29-.19-3.23-.56-.93-.37-1.71-.9-2.35-1.6-.64-.7-1.12-1.53-1.44-2.49-.32-.96-.48-2.04-.48-3.24s.16-2.34.48-3.36.79-1.91,1.41-2.67,1.38-1.35,2.28-1.76c.9-.41,1.93-.61,3.09-.61,1.02,0,1.95.17,2.79.51.84.34,1.55.87,2.14,1.58s1.04,1.6,1.33,2.67c.3,1.07.42,2.33.36,3.77l-12.18.09v-1.86l10.53-.09-.93,1.26c.1-1.26-.02-2.3-.36-3.12-.34-.82-.83-1.44-1.46-1.86-.63-.42-1.38-.63-2.24-.63-.92,0-1.73.24-2.43.72-.7.48-1.24,1.17-1.61,2.07-.37.9-.55,1.99-.55,3.27,0,1.84.41,3.25,1.23,4.21.82.97,2.03,1.46,3.63,1.46.64,0,1.2-.08,1.67-.23s.87-.36,1.2-.63.6-.58.81-.95c.21-.36.38-.75.5-1.17l2.4.57c-.18.72-.46,1.36-.83,1.93-.37.57-.83,1.06-1.38,1.46-.55.4-1.18.71-1.91.93-.72.22-1.55.33-2.49.33Z"/>
    <path d="m1232.17,417.2c-.64,0-1.12-.13-1.44-.39-.32-.26-.48-.65-.48-1.17s.16-.91.48-1.17c.32-.26.79-.39,1.41-.39s1.12.13,1.44.39c.32.26.48.65.48,1.17s-.16.89-.48,1.15c-.32.27-.79.41-1.41.41Zm-1.38,18.21v-15.51h2.73v15.51h-2.73Z"/>
    <path d="m1238.26,435.41v-15.51h2.46l-.24,5.4h.51c.18-1.18.46-2.2.84-3.06.38-.86.88-1.53,1.51-2.01s1.42-.72,2.35-.72c.2,0,.43.02.69.04s.56.1.9.23l-.15,2.85c-.3-.12-.6-.21-.9-.26-.3-.05-.59-.07-.87-.07-.78,0-1.46.25-2.03.75s-1.04,1.17-1.42,2.02c-.38.85-.69,1.81-.93,2.86v7.47h-2.73Z"/>
    <path d="m1253.56,435.8c-.84,0-1.6-.17-2.28-.5-.68-.33-1.22-.82-1.62-1.47-.4-.65-.6-1.47-.6-2.47,0-.74.13-1.39.4-1.95.27-.56.69-1.04,1.26-1.44.57-.4,1.3-.73,2.2-.99.9-.26,2-.48,3.3-.66.74-.1,1.34-.2,1.81-.3.47-.1.81-.26,1.04-.49.22-.23.33-.57.33-1.04,0-.76-.26-1.4-.78-1.92s-1.34-.78-2.46-.78c-.58,0-1.17.1-1.77.3-.6.2-1.12.54-1.58,1-.45.47-.74,1.12-.86,1.96l-2.52-.84c.16-.72.42-1.37.79-1.95.37-.58.84-1.07,1.42-1.48.58-.41,1.25-.72,2.03-.94.77-.22,1.62-.33,2.56-.33,1.3,0,2.39.22,3.25.66.87.44,1.52,1.12,1.95,2.03s.65,2.08.65,3.49v3.45c0,.62.01,1.3.04,2.02.03.73.08,1.46.13,2.19.06.73.12,1.42.18,2.06h-2.52c-.06-.64-.12-1.28-.17-1.92s-.08-1.28-.11-1.92h-.39c-.3.74-.7,1.43-1.2,2.07-.5.64-1.12,1.16-1.88,1.56s-1.63.6-2.65.6Zm.81-2.22c.44,0,.88-.07,1.33-.21.45-.14.9-.37,1.35-.69.45-.32.88-.73,1.29-1.23.41-.5.78-1.1,1.1-1.8v-3l.78.15c-.32.32-.75.56-1.27.72-.53.16-1.12.29-1.75.39-.64.1-1.28.21-1.92.31-.64.11-1.23.27-1.76.48-.53.21-.96.51-1.27.89-.32.38-.48.9-.48,1.56,0,.8.24,1.41.72,1.81.48.41,1.11.61,1.89.61Z"/>
  </g>
  <path class="cls-2" d="m489.91,442.98c-8.69,0-16.63-5.12-21.78-14.05-5.75-9.96-15.11-37.88,12.08-92.17-33.42,50.69-62.28,56.55-73.78,56.55-15.06,0-25.99-9.7-25.99-23.07,0-12.31,8.89-24.56,24.39-33.6,16.04-9.35,38.65-15.04,66.03-16.69-27.38-1.65-49.99-7.33-66.04-16.69-15.5-9.04-24.39-21.28-24.39-33.59,0-13.37,10.93-23.07,26-23.07,11.5,0,40.36,5.86,73.78,56.55-27.19-54.29-17.83-82.21-12.08-92.17,5.15-8.93,13.09-14.05,21.78-14.05s16.63,5.12,21.78,14.05c5.75,9.96,15.11,37.88-12.08,92.17,33.42-50.69,62.28-56.55,73.78-56.55,15.06,0,25.99,9.7,25.99,23.07,0,12.31-8.89,24.56-24.39,33.6-16.01,9.33-38.56,15.02-65.86,16.68,60.76,3.56,80.29,25.67,86.05,35.64,5.15,8.93,5.62,18.36,1.27,25.89-4.34,7.52-12.75,11.84-23.05,11.84h0c-11.5,0-40.36-5.86-73.78-56.55,27.19,54.29,17.83,82.21,12.08,92.17-5.15,8.93-13.09,14.05-21.78,14.05Z"/>
  <path class="cls-2" d="m490.86,318.32c93.05-161.17-94.95-161.17-1.9,0-93.05-161.17-187.05,1.64-.95,1.64-186.1,0-92.1,162.81.95,1.64-93.05,161.17,94.95,161.17,1.9,0,93.05,161.17,187.05-1.64.95-1.64,186.1,0,92.1-162.81-.95-1.64Z"/>
  <path class="cls-2" d="m1325.01,764.24c-27.05,0-53.03-25.65-53.47-52.78-.18-11.28,3.96-27.54,24.72-40.95,17.68-11.42,43.63-18.32,77.27-20.56v-.6c-33.63-2.24-59.58-9.13-77.25-20.55-20.75-13.41-24.9-29.67-24.72-40.95.43-27.14,26.41-52.8,53.47-52.8,11.18,0,27.29,4.36,40.54,25.15,11.26,17.67,18.06,43.48,20.28,76.83h.6c2.22-33.35,9.02-59.16,20.28-76.83,13.25-20.79,29.35-25.15,40.54-25.15,27.06,0,53.05,25.66,53.48,52.8.18,11.28-3.97,27.54-24.72,40.95-17.68,11.42-43.63,18.32-77.26,20.55v.6c33.63,2.24,59.58,9.13,77.25,20.55,20.75,13.41,24.9,29.67,24.72,40.95-.43,27.14-26.41,52.8-53.47,52.8-11.18,0-27.29-4.36-40.54-25.15-11.26-17.67-18.06-43.48-20.28-76.83h-.6c-2.22,33.35-9.02,59.15-20.28,76.82-13.24,20.78-29.35,25.15-40.54,25.16h-.02Z"/>
  <path class="cls-2" d="m1386.14,637.03c0,277.54-264.92,12.62,12.62,12.62-277.54,0-12.62-264.92-12.62,12.62,0-277.54,264.92-12.62-12.62-12.62,277.54,0,12.62,264.92,12.62-12.62Z"/>
</svg>